HIERARCHY
ROOT hip
{
	OFFSET 0.000000 0.000000 0.000000 
	CHANNELS 6 Xposition Yposition Zposition Xrotation Zrotation Yrotation
	JOINT abdomen
	{
		OFFSET 0.000000 3.402643 0.000000 
		CHANNELS 3 Xrotation Zrotation Yrotation
		JOINT chest
		{
			OFFSET 0.000000 8.438565 -0.680529 
			CHANNELS 3 Xrotation Zrotation Yrotation
			JOINT neck
			{
				OFFSET 0.000000 10.207942 -0.272212 
				CHANNELS 3 Xrotation Zrotation Yrotation
				JOINT head
				{
					OFFSET 0.000000 3.130431 0.000000 
					CHANNELS 3 Xrotation Zrotation Yrotation
					End Site
					{
						OFFSET 0.000000 3.130435 0.000000 
					}
				}
			}
			JOINT lCollar
			{
				OFFSET 3.470700 6.669187 -0.816635 
				CHANNELS 3 Yrotation Zrotation Xrotation
				JOINT lShldr
				{
					OFFSET 3.198488 0.000000 0.000000 
					CHANNELS 3 Zrotation Yrotation Xrotation
					JOINT lForeArm
					{
						OFFSET 10.139888 0.000000 0.000000 
						CHANNELS 3 Yrotation Zrotation Xrotation
						JOINT lHand
						{
							OFFSET 8.370511 0.000000 0.000000 
							CHANNELS 3 Zrotation Yrotation Xrotation
							End Site
							{
								OFFSET 4.083176 0.000000 0.000000 
							}
						}
					}
				}
			}
			JOINT rCollar
			{
				OFFSET -3.470700 6.669187 -0.816635 
				CHANNELS 3 Yrotation Zrotation Xrotation
				JOINT rShldr
				{
					OFFSET -3.198488 0.000000 0.000000 
					CHANNELS 3 Zrotation Yrotation Xrotation
					JOINT rForeArm
					{
						OFFSET -10.139888 0.000000 0.000000 
						CHANNELS 3 Yrotation Zrotation Xrotation
						JOINT rHand
						{
							OFFSET -8.370511 0.000000 0.000000 
							CHANNELS 3 Zrotation Yrotation Xrotation
							End Site
							{
								OFFSET -4.083176 0.000000 0.000000 
							}
						}
					}
				}
			}
		}
	}
	JOINT lThigh
	{
		OFFSET 5.308129 -1.633274 1.361059 
		CHANNELS 3 Xrotation Zrotation Yrotation
		JOINT lShin
		{
			OFFSET -2.041588 -20.007561 0.000000 
			CHANNELS 3 Xrotation Zrotation Yrotation
			JOINT lFoot
			{
				OFFSET 0.000000 -19.190928 -1.224953 
				CHANNELS 3 Xrotation Yrotation Zrotation
				End Site
				{
					OFFSET 0.000000 -2.449906 4.627600 
				}
			}
		}
	}
	JOINT rThigh
	{
		OFFSET -5.308129 -1.633274 1.361059 
		CHANNELS 3 Xrotation Zrotation Yrotation
		JOINT rShin
		{
			OFFSET 2.041588 -20.007561 0.000000 
			CHANNELS 3 Xrotation Zrotation Yrotation
			JOINT rFoot
			{
				OFFSET 0.000000 -19.190928 -1.224953 
				CHANNELS 3 Xrotation Yrotation Zrotation
				End Site
				{
					OFFSET 0.000000 -2.449906 4.627600 
				}
			}
		}
	}
}
MOTION
Frames: 17
Frame Time: 0.033333
-3.818588 48.919498 5.827351 0.623602 0.390623 -0.205073 0.000000 0.000000 0.000000 -3.084050 0.410152 0.263735 6.213794 0.380849 0.429743 5.271526 -0.400386 0.273431 -0.773686 10.358232 -2.164143 -8.052116 0.670144 -4.413670 0.190442 -8.047976 7.929818 -0.124516 -5.348614 -3.363075 0.790030 -9.588384 -2.237692 4.754269 -8.839386 -1.797151 -0.691239 3.877605 7.839781 2.599074 4.268756 -3.218441 6.752597 8.188047 4.117427 0.458411 -2.584456 12.166522 -5.721512 0.440054 -7.886774 3.892871 -9.221327 -6.063420 6.233639 3.683734 -11.714285 -8.414284 -0.569090 7.394585 
-3.815690 48.919239 5.843424 0.604350 0.410155 -0.156246 0.000000 0.000000 0.000000 -3.094164 0.361325 0.244197 6.203968 0.468742 0.341865 5.338850 -0.576164 0.292954 -0.738856 10.454858 -2.175537 -8.207759 0.601320 -4.604641 0.191827 -7.941205 8.045858 -0.169106 -5.243698 -3.369144 0.882890 -9.464911 -2.236023 4.617751 -8.946101 -1.590561 -0.692554 3.926925 7.761835 2.609522 4.083731 -3.226955 6.850269 8.149817 4.083104 0.351939 -2.541852 12.221086 -5.707820 0.385722 -7.910050 4.001006 -9.243682 -6.076843 6.179584 3.659299 -11.729273 -8.435706 -0.547648 7.426500 
-3.809022 48.914837 5.847269 0.555542 0.429686 -0.146480 0.000000 0.000000 0.000000 -3.074654 0.371091 0.234433 6.213629 0.478508 0.322336 5.475420 -0.605461 0.292952 -0.680585 10.237501 -2.164191 -7.929763 0.576187 -4.516333 0.196020 -8.035946 7.841441 -0.537044 -5.167347 -3.337476 0.853036 -9.561074 -2.216773 4.775720 -8.872538 -1.746291 -0.658425 3.873025 7.516963 2.487335 3.656263 -3.246113 6.840840 8.120094 4.059486 0.477874 -2.535645 12.174603 -5.742623 0.397562 -7.916348 3.963789 -9.266494 -6.108095 6.362865 3.686086 -11.763638 -8.506107 -0.573759 7.469424 
-3.797950 48.897221 5.842886 0.574764 0.458982 -0.175776 0.000000 0.000000 0.000000 -3.093885 0.380855 0.273496 6.135522 0.429679 0.361391 5.593706 -0.468746 0.244132 -0.653447 10.090256 -2.183411 -7.751565 0.570303 -4.442796 0.193043 -8.106142 7.891147 -0.532573 -5.411615 -3.333908 0.887624 -9.592143 -2.237625 4.805980 -8.871110 -2.002353 -0.671272 3.742393 7.819014 2.861572 3.961133 -3.216232 6.432311 8.112288 3.988465 1.238150 -2.529989 12.225274 -6.106001 0.465582 -8.012085 3.728073 -9.340752 -6.083032 6.834520 3.640373 -11.556512 -8.776072 -0.602672 7.525943 
-3.795301 48.898746 5.834085 0.682126 0.410154 -0.205073 0.000000 0.000000 0.000000 -3.171656 0.439448 0.283270 6.019454 0.488266 0.449286 5.758606 -0.537100 0.332017 -0.582338 10.098519 -2.252453 -7.801251 0.592444 -4.397533 0.168170 -8.088391 7.802747 -0.530862 -5.440860 -3.333476 0.859344 -9.524116 -2.306664 4.812186 -8.763534 -2.119614 -0.698990 3.748113 7.926816 2.814179 4.280790 -3.202425 6.284128 8.159568 3.994236 1.306515 -2.520176 12.201510 -6.140040 0.418107 -8.023129 3.592354 -9.305007 -6.047890 6.780579 3.664750 -11.734438 -8.695951 -0.602577 7.524365 
-3.784234 48.908287 5.836374 0.652300 0.468746 -0.244132 0.000000 0.000000 0.000000 -3.152026 0.429682 0.302799 5.960320 0.371079 0.507865 5.945962 -0.263669 0.283200 -0.648619 9.993228 -2.231477 -7.746246 0.786904 -3.939865 0.202218 -8.227744 8.732105 -0.337645 -5.400169 -3.342585 0.807821 -9.629374 -2.297067 4.948100 -8.611384 -2.021870 -0.690485 3.838087 7.907985 2.576488 3.974408 -3.234999 6.599325 8.084662 4.004917 0.761035 -2.560199 12.254946 -5.869348 0.451983 -7.906097 3.677872 -9.416193 -6.159259 6.645386 3.744313 -11.584653 -8.606578 -0.569385 7.462729 
-3.783478 48.908035 5.835665 0.739471 0.498039 -0.312488 0.000000 0.000000 0.000000 -3.220472 0.400385 0.312561 5.872097 0.361316 0.468802 6.014427 -0.292966 0.234372 -0.526044 10.067809 -2.302254 -7.895867 0.823754 -3.958178 0.210556 -8.156391 9.214024 -0.064383 -5.384157 -3.358557 0.896281 -9.614641 -2.356393 5.047858 -8.637106 -2.038939 -0.685184 3.819210 7.869013 2.618746 4.094018 -3.225773 6.608323 8.053714 3.961601 0.595339 -2.561342 12.343342 -5.820883 0.432102 -7.903031 3.551958 -9.399759 -6.066759 6.683244 3.665141 -11.585331 -8.635982 -0.592767 7.506229 
-3.779327 48.900238 5.829666 0.777788 0.507801 -0.390610 0.000000 0.000000 0.000000 -3.239539 0.419914 0.361390 5.900684 0.292960 0.439497 5.849091 -0.234374 0.126952 -0.457479 9.987202 -2.321508 -7.849587 0.852081 -3.990453 0.225195 -8.104617 9.726328 -0.251233 -5.365794 -3.351139 0.993868 -9.618601 -2.356315 5.085042 -8.640145 -1.648030 -0.646253 3.993085 7.400740 2.368129 3.845376 -3.254501 6.364082 8.053520 3.951502 1.004596 -2.623490 12.464771 -6.006299 0.425840 -7.910006 3.396091 -9.448720 -6.059393 6.951991 3.669937 -11.507750 -8.765124 -0.609417 7.544055 
-3.780599 48.896854 5.813280 0.796194 0.507792 -0.517558 0.000000 0.000000 0.000000 -3.229130 0.449207 0.419986 5.930161 0.263661 0.527383 5.770792 -0.253905 0.156248 -0.435429 10.132639 -2.302304 -8.150512 0.973641 -3.965754 0.211472 -7.921711 10.351910 -0.029486 -5.294135 -3.371556 1.056103 -9.572009 -2.345014 5.344440 -8.660353 -2.145514 -0.638579 3.677672 7.906747 2.524307 4.030084 -3.235564 6.284134 8.051323 3.951412 1.150949 -2.602976 12.602010 -6.084568 0.427495 -7.943076 3.269439 -9.428572 -5.986411 7.058769 3.570174 -11.299913 -8.782543 -0.604648 7.557341 
-3.793302 48.903893 5.797838 0.728271 0.419901 -0.566391 0.000000 0.000000 0.000000 -3.101472 0.478499 0.478581 5.971191 0.429665 0.585994 5.749756 -0.537105 0.234365 -0.387716 10.344284 -2.194906 -8.526929 0.836815 -3.718861 0.181936 -7.878453 10.843457 0.275561 -4.972898 -3.400450 1.151103 -9.396802 -2.226186 5.725601 -8.801698 -2.527729 -0.577063 3.420175 7.806894 2.384148 4.080793 -3.242481 6.410734 8.140018 4.011898 1.033482 -2.568481 12.472420 -5.995528 0.418799 -7.955505 3.454635 -9.312840 -5.948164 6.766500 3.582217 -11.232313 -8.663818 -0.574234 7.493922 
-3.798220 48.902508 5.778819 0.717718 0.419893 -0.673810 0.000000 0.000000 0.000000 -3.021698 0.517547 0.625063 6.205261 0.380837 0.615286 5.292695 -0.322266 0.048827 -0.223850 10.308166 -2.135562 -9.273010 0.453489 -4.080784 0.132949 -7.320007 12.069351 0.759455 -5.032207 -3.432792 1.418331 -9.561595 -2.166534 7.080544 -9.270089 -3.592195 -0.445262 2.700042 7.117031 1.668940 4.069382 -3.292682 6.402852 8.121657 3.999488 1.082486 -2.568369 12.537742 -6.060896 0.438955 -7.980112 3.297594 -9.339868 -5.958691 6.967822 3.666690 -11.252826 -8.683492 -0.600241 7.460666 
-3.816228 48.906670 5.756512 0.581893 0.292941 -0.791005 0.000000 0.000000 0.000000 -2.804910 0.585888 0.742249 6.440412 0.361295 0.771531 5.409031 0.507811 -0.126948 -0.245194 10.541176 -1.917221 -10.682568 0.148280 -4.171624 0.065983 -6.599141 13.426279 1.391150 -5.434710 -3.477114 1.438493 -9.360846 -1.967561 8.870526 -9.350527 -5.257987 -0.254700 1.968421 4.553441 0.343774 4.090070 -3.384356 6.502373 8.241579 4.103233 1.209373 -2.528113 12.637201 -6.080322 0.414054 -8.055426 3.503821 -9.194690 -5.937179 6.747579 3.670784 -11.229746 -8.529642 -0.588317 7.387975 
-3.849200 48.924149 5.711317 0.650159 0.214804 -1.103508 0.000000 0.000000 0.000000 -2.704782 0.634686 0.908364 6.685127 0.371054 0.839889 5.443451 0.966780 -0.341748 -0.133323 10.331503 -1.817656 -12.271789 -0.210221 -4.091688 -0.021620 -5.842535 14.034971 2.280716 -6.192893 -3.559066 2.062012 -8.555999 -1.834096 10.520351 -9.968693 -6.725142 -0.090865 1.237865 1.943748 -0.957482 4.707068 -3.465736 6.783375 8.336159 4.205234 0.574867 -2.556938 12.949967 -5.742186 0.390424 -8.015274 3.541230 -9.045918 -5.765145 6.284263 3.597976 -10.875288 -8.293926 -0.555108 7.291241 
-3.885480 48.929054 5.661134 0.835770 0.165966 -1.406244 0.000000 0.000000 0.000000 -2.596550 0.693274 0.898608 6.808876 0.166001 0.771509 5.609992 2.382562 -0.830578 -0.112271 9.626742 -1.724265 -14.033055 0.382861 -3.587844 -1.657182 -4.997715 14.335167 3.210804 -7.164145 -3.641047 2.315191 -8.148842 -1.723420 13.230641 -9.859901 -8.759079 0.046630 0.322591 0.390619 -1.775129 5.097881 -3.523725 6.951871 8.416980 4.225682 0.029181 -2.506179 12.856157 -5.568636 0.375894 -8.060001 3.222453 -9.023513 -5.769010 6.338588 3.748526 -10.543118 -8.291371 -0.534222 7.118382 
-3.959741 48.933983 5.601758 0.923667 -0.156146 -2.089863 0.000000 0.000000 0.000000 -2.331766 0.732324 0.937673 6.968284 0.585913 0.527416 5.852303 3.261058 -1.153811 -0.000833 9.309814 -1.504314 -16.391344 4.855251 -2.570634 -11.804880 -4.190732 15.574883 2.184756 -6.091551 -3.535421 3.203928 -6.909719 -1.462099 16.268614 -9.944817 -10.862698 0.068130 -0.673851 -0.019530 -3.655328 6.039410 -3.672551 7.068848 8.768336 4.469437 -0.010048 -2.389481 12.847196 -5.636798 0.398736 -8.243109 3.122046 -8.645679 -5.525273 5.963949 3.785429 -10.022838 -7.996727 -0.506103 6.857578 
-4.050634 48.955238 5.568032 0.807440 -0.516915 -2.900537 0.000000 0.000000 0.000000 -1.877946 0.917819 1.035336 7.161823 0.732413 0.283305 6.373157 4.753490 -1.812564 0.103901 8.524962 -1.096618 -18.846821 7.459711 -1.545025 -17.635443 -3.627193 15.982909 1.534801 -5.533603 -3.493248 3.795216 -5.433381 -1.076231 19.749876 -10.238615 -13.194689 1.592779 -1.571210 0.390864 -4.535263 6.317218 -3.749881 7.463534 9.212555 4.977863 -0.233568 -2.513617 13.506764 -5.505798 0.400806 -8.313511 3.494119 -8.269017 -5.392270 5.028775 3.963250 -9.353879 -7.459935 -0.452505 6.475734 
-4.178753 48.950611 5.477137 1.234743 -0.876655 -4.102127 0.000000 0.000000 0.000000 -1.763373 1.122796 1.211279 7.119457 0.927734 0.019687 7.156249 5.932004 -2.473992 0.471200 7.873809 -1.016419 -22.579725 9.704924 -1.261942 -22.444897 -3.109774 15.545406 1.209885 -4.525805 -3.464372 4.699080 -3.314518 -0.993868 24.569719 -15.498261 -14.998310 15.001987 -2.040880 -0.509374 -6.057462 2.829828 -3.741600 7.185378 9.695946 5.294474 0.077853 -2.496017 14.024852 -5.732670 0.441218 -8.588674 2.671938 -7.716271 -4.885858 5.140268 3.937053 -8.858185 -7.350515 -0.389150 6.192118 
